<?xml version="1.0" encoding="utf-8"?>
<!-- Generator: Adobe Illustrator 24.0.1, SVG Export Plug-In . SVG Version: 6.00 Build 0)  -->
<svg version="1.1" id="Layer_1" xmlns="http://www.w3.org/2000/svg" xmlns:xlink="http://www.w3.org/1999/xlink" x="0px" y="0px"
	 viewBox="0 0 554.7 553.8" style="enable-background:new 0 0 554.7 553.8;" xml:space="preserve">
<style type="text/css">
	.st0{fill:#F7CBB9;}
</style>
<g>
	<path class="st0" d="M324,553.8c-1.5-1.5-2.8-3.2-4.4-4.5c-24.1-19.8-48.4-39.5-72.5-59.3c-14.8-12.2-19.8-31-13-48.3
		c6.6-16.8,23.1-27.5,41.4-26.5c9.7,0.5,18.2,4.1,25.6,10.4c5.9,5,11.8,10.1,17.7,15.1c1.3,1.1,2.7,2.1,5,3.8c0-3,0-4.9,0-6.9
		c0-41.9-0.1-83.8,0.1-125.6c0.1-23.6,21.1-40,43.7-34.7c15.2,3.6,25.4,18,25.6,36.5c0.2,22.6,0.2,45.1-0.1,67.7
		c0,4.4,1.3,6.1,5.4,7.6C448.6,407,498.8,425.1,549,443c1.8,0.7,3.8,0.9,5.7,1.4c0,36.5,0,73,0,109.4
		C477.8,553.8,400.9,553.8,324,553.8z"/>
	<path class="st0" d="M554.7,282.9c-1.1,3.6-2,7.3-3.4,10.8c-7,17.8-25.6,29.9-44.2,28.9c-20.2-1-36.8-13.7-42.7-32.6
		c-5.8-18.7,0.8-39,16.8-50.5c3.1-2.2,4.4-4.5,4.3-8.3c-0.3-15.2-0.2-30.3-0.2-45.5c0-0.3-0.2-0.6-0.5-1.3c-23.1,0-46.2,0-70.1,0
		c2.4,21.9,1.4,43.4-3.2,65.2c-3.8-2.7-7.1-5.4-10.7-7.7c-11.7-7.7-24.2-12.3-38.6-11.9c-19.3,0.5-38.6,0.1-57.9,0.1
		c-2,0-3.9,0-6.5,0c0.5-3.1,0.9-5.7,1.3-8.3c7-46-19.1-88.4-63.3-102.5c-3.4-1.1-4.8-2.4-4.8-6.3c0.2-35.9,0.1-71.9,0.1-107.8
		c0-1.4,0.2-2.8,0.4-5.3c10.2,2.1,20.2,3.4,29.8,6.1c67.6,19.3,114.5,61.7,140.8,126.9c1.5,3.7,3.2,4.8,7,4.7
		c38.6-0.1,77.3-0.1,115.9-0.1c2,0,3.9,0,6.7,0c0,2.4,0,4.5,0,6.6c0,28.9,0.1,57.8-0.1,86.7c0,3.8,0.8,6.2,4.1,8.5
		c10.7,7.3,16,18.2,19,30.4C554.7,274.2,554.7,278.6,554.7,282.9z"/>
	<path class="st0" d="M40.2,553.8c-9.3-2.4-18.3-5.5-25.3-12.5c-13.3-13.2-18.1-29-12.6-47c5.4-18,18-29.1,36.5-32.2
		c18.2-3,33.4,3.3,44.6,18.2c2.3,3.1,4.5,4.3,8.3,4.2c15.5-0.3,31-0.1,46.8-0.1c0.1-1.6,0.3-2.8,0.3-4c0-24.4-0.1-48.7,0.1-73.1
		c0-3.5-1.2-5-4.3-6.2C60.9,371,16.9,316.8,2.5,238.5c-0.4-1.9-0.5-3.9-0.7-5.9c0-0.5,0.1-1.1,0.1-2.1c1.5-0.1,3.1-0.3,4.6-0.3
		c35.7,0,71.5,0.1,107.2-0.1c4,0,5.4,1.4,6.6,5c10.1,29.8,30.2,49.9,60.1,59.8c3.6,1.2,4.6,2.8,4.6,6.4
		c-0.1,74.7-0.1,149.4-0.1,224.2c0,1.6-0.2,3.1-0.4,5.4c-2.4,0-4.5,0-6.6,0c-28.7,0-57.4,0.1-86.1-0.1c-3.9,0-6.5,0.8-8.9,4.3
		c-7.2,10.5-17.9,15.7-29.9,18.8C48.8,553.8,44.5,553.8,40.2,553.8z"/>
	<path class="st0" d="M184.7,117.9c-26.2,7.7-45.7,22.9-58.2,46.7c-2.7,5.1-4.2,10.7-6.7,15.9c-0.7,1.5-2.8,3.4-4.3,3.4
		c-37.3,0.2-74.7,0.1-112,0.1c-0.3,0-0.7-0.2-1.9-0.6c4.8-41.6,20.6-78.6,47.8-110.5C84.9,31.3,130,7.4,184.7,0.4
		C184.7,39.9,184.7,78.8,184.7,117.9z"/>
</g>
</svg>
