<?xml version="1.0" encoding="utf-8"?>
<!-- Generator: Adobe Illustrator 24.0.1, SVG Export Plug-In . SVG Version: 6.00 Build 0)  -->
<svg version="1.1" id="Layer_1" xmlns="http://www.w3.org/2000/svg" xmlns:xlink="http://www.w3.org/1999/xlink" x="0px" y="0px"
	 viewBox="0 0 606.5 606.6" style="enable-background:new 0 0 606.5 606.6;" xml:space="preserve">
<style type="text/css">
	.st0{fill:#F7CBB9;}
</style>
<g>
	<path class="st0" d="M440.7,606.6c-7.1-1.4-14.3-2.5-21.3-4.2c-70.5-17.4-117.5-79.2-116.1-152.7c1.3-69.1,52.8-129.5,122.2-143.6
		c86.5-17.5,170.3,43.9,180,131.9c0.1,1.3,0.7,2.6,1,3.9c0,8.7,0,17.4,0,26.1c-0.4,1.5-0.9,3-1.1,4.5
		c-7.3,61.5-50.1,111.7-109.9,128.4c-9,2.5-18.4,3.8-27.6,5.7C458.8,606.6,449.8,606.6,440.7,606.6z M455,480.1
		c-12.6,0-25.2-0.3-37.9,0.1c-20.8,0.5-37.2,15.9-37.9,35.6c-0.1,2.9,1.2,6.7,3.2,8.8c39.1,41.8,106.8,41.8,145.5-0.1
		c1.5-1.6,2.6-4.4,2.6-6.7c0.1-20.8-16.5-37.1-38.3-37.6C479.8,479.9,467.4,480.1,455,480.1z M454.5,454.9c28,0.1,51-22.7,50.9-50.6
		c-0.1-27.9-22.6-50.3-50.5-50.3c-27.9,0-50.5,22.4-50.6,50.2C404.1,431.8,426.9,454.8,454.5,454.9z"/>
	<path class="st0" d="M151.3,303.3C67.4,303-0.3,235,0,151.2C0.3,67.4,68.6-0.4,152.3,0c83.9,0.4,151.3,68.5,151,152.4
		C302.9,235.9,234.7,303.6,151.3,303.3z M151.9,176.8c-12.6,0-25.2-0.2-37.9,0c-20.9,0.4-37.5,16-38.1,36c-0.1,2.8,1.2,6.3,3.1,8.3
		c38.9,41.9,106.6,42,145.5,0.2c1.6-1.8,2.7-4.8,2.7-7.2c-0.1-20.6-16.7-36.8-38.1-37.2C176.8,176.6,164.4,176.8,151.9,176.8z
		 M151.5,50.7c-27.8,0.1-50.5,22.7-50.4,50.4c0,27.7,22.7,50.5,50.5,50.5c28,0.1,51-23,50.7-50.8C201.9,72.9,179.4,50.6,151.5,50.7z
		"/>
	<path class="st0" d="M76,530.4c0-63.8,0-127.1,0-191.3c24.4,9.6,49.3,14.5,75.5,14.7c0,33.8,0,67,0,100.9c33.7,0,67,0,101,0
		c0.5,26.2,5,51.2,14.9,75.7C203.3,530.4,139.9,530.4,76,530.4z"/>
	<path class="st0" d="M339,76c64.4,0,127.7,0,191.4,0c0,63.6,0,127.1,0,191.3c-24.1-9.5-49.1-14.3-75.3-14.6c0-33.8,0-67,0-100.8
		c-33.8,0-67,0-101.1,0C353.4,125.6,349,100.6,339,76z"/>
</g>
</svg>
