<?xml version="1.0" encoding="utf-8"?>
<!-- Generator: Adobe Illustrator 24.0.1, SVG Export Plug-In . SVG Version: 6.00 Build 0)  -->
<svg version="1.1" id="Layer_1" xmlns="http://www.w3.org/2000/svg" xmlns:xlink="http://www.w3.org/1999/xlink" x="0px" y="0px"
	 viewBox="0 0 628.4 382.5" style="enable-background:new 0 0 628.4 382.5;" xml:space="preserve">
<style type="text/css">
	.st0{fill:#F7CBB9;}
</style>
<g>
	<path class="st0" d="M0,218.6c27,0,54.1,0,81.5,0c0,54.3,0,108.5,0,163.9c-27.2,0-54.4,0-81.5,0C0,327.9,0,273.2,0,218.6z"/>
	<path class="st0" d="M338.2,0c38,38,74.9,75,111.9,112.1c37.7-37.7,75-75,111.9-111.9c20.1,20.1,39.2,39.2,57.9,58
		C564.1,114,507.5,170.6,450.8,227.2c-36.8-36.8-73.8-73.8-111-111C288,168.1,236.9,219.2,186,270C131.3,215.4,77.3,161.4,23.9,108
		c18.9-18.9,38-37.9,57.3-57.2c33.7,33.7,68.5,68.5,103.1,103.2C235.9,102.4,286.8,51.4,338.2,0z"/>
	<path class="st0" d="M628.4,191.1c0,63.9,0,127,0,190.6c-27.1,0-53.8,0-81.1,0c0-63.5,0-126.9,0-190.6
		C574.3,191.1,601.1,191.1,628.4,191.1z"/>
	<path class="st0" d="M354.8,245.9c0,45.3,0,90.4,0,135.9c-27.1,0-53.9,0-81.1,0c0-45.3,0-90.4,0-135.9
		C300.7,245.9,327.6,245.9,354.8,245.9z"/>
	<path class="st0" d="M410.3,273.1c27.4,0,54.2,0,81.3,0c0,36.3,0,72.3,0,108.7c-27.1,0-54.1,0-81.3,0
		C410.3,345.5,410.3,309.6,410.3,273.1z"/>
	<path class="st0" d="M137.1,381.8c0-27.2,0-53.9,0-81.1c27,0,53.8,0,81.1,0c0,26.9,0,53.8,0,81.1
		C191.3,381.8,164.6,381.8,137.1,381.8z"/>
</g>
</svg>
